<?xml version="1.0" encoding="UTF-8" standalone="no"?>
<svg
   xmlns:dc="http://purl.org/dc/elements/1.1/"
   xmlns:cc="http://creativecommons.org/ns#"
   xmlns:rdf="http://www.w3.org/1999/02/22-rdf-syntax-ns#"
   xmlns:svg="http://www.w3.org/2000/svg"
   xmlns="http://www.w3.org/2000/svg"
   xmlns:sodipodi="http://sodipodi.sourceforge.net/DTD/sodipodi-0.dtd"
   xmlns:inkscape="http://www.inkscape.org/namespaces/inkscape"
   width="160mm"
   height="91mm"
   viewBox="0 0 16000 9100"
   version="1.1"
   stroke-width="28.222"
   stroke-linejoin="round"
   xml:space="preserve"
   id="svg122"
   sodipodi:docname="pie-chart.svg"
   inkscape:version="1.0.2 (e86c870879, 2021-01-15)"><metadata
   id="metadata128"><rdf:RDF><cc:Work
       rdf:about=""><dc:format>image/svg+xml</dc:format><dc:type
         rdf:resource="http://purl.org/dc/dcmitype/StillImage" /></cc:Work></rdf:RDF></metadata><defs
   id="defs126" /><sodipodi:namedview
   pagecolor="#ffffff"
   bordercolor="#666666"
   borderopacity="1"
   objecttolerance="10"
   gridtolerance="10"
   guidetolerance="10"
   inkscape:pageopacity="0"
   inkscape:pageshadow="2"
   inkscape:window-width="1920"
   inkscape:window-height="1052"
   id="namedview124"
   showgrid="false"
   inkscape:zoom="2.166276"
   inkscape:cx="311.55125"
   inkscape:cy="193.55988"
   inkscape:window-x="0"
   inkscape:window-y="0"
   inkscape:window-maximized="1"
   inkscape:current-layer="svg122" />
 <path
   fill="rgb(255,255,255)"
   stroke="none"
   d="M 8002,9140 L 0,9140 0,0 16003,0 16003,9140 8002,9140 Z"
   id="path2" />
 <path
   fill="rgb(0,130,134)"
   stroke="none"
   d="M 7343,1718 C 7023,1718 6706,1768 6402,1867 6098,1965 5811,2111 5553,2299 5294,2487 5067,2714 4879,2973 4691,3231 4545,3518 4447,3822 4348,4126 4298,4443 4298,4762 4298,5082 4348,5399 4447,5703 4451,5718 4456,5733 4461,5748 L 5902,5255 C 5900,5247 5897,5240 5895,5233 5845,5081 5820,4922 5820,4762 5820,4602 5845,4444 5895,4292 5944,4140 6017,3997 6111,3868 6205,3739 6319,3625 6448,3531 6577,3437 6720,3364 6872,3315 7024,3265 7183,3240 7343,3240 L 7343,1718 Z"
   id="path4" />
 <path
   fill="rgb(255,66,14)"
   stroke="none"
   d="M 4461,5748 C 4560,6035 4701,6306 4879,6552 5067,6811 5294,7038 5553,7226 5811,7414 6098,7560 6402,7658 6706,7757 7023,7808 7343,7808 7663,7808 7980,7757 8283,7658 8587,7560 8874,7414 9132,7226 9391,7038 9618,6811 9806,6552 9994,6294 10140,6007 10238,5703 10337,5399 10388,5082 10388,4762 10388,4579 10371,4397 10338,4217 L 8840,4490 C 8856,4579 8865,4670 8865,4762 8865,4922 8840,5081 8790,5233 8741,5385 8668,5528 8574,5657 8480,5786 8366,5900 8237,5994 8108,6088 7966,6161 7814,6210 7662,6260 7503,6285 7343,6285 7183,6285 7024,6260 6872,6210 6720,6161 6577,6088 6448,5994 6319,5900 6205,5786 6111,5657 6022,5534 5951,5399 5902,5255 L 4461,5748 Z"
   id="path6" />
 <path
   fill="rgb(255,211,32)"
   stroke="none"
   d="M 10338,4217 C 10314,4083 10280,3951 10238,3822 10170,3612 10079,3410 9967,3219 L 8655,3991 C 8711,4086 8756,4187 8790,4292 8811,4357 8828,4423 8840,4490 L 10338,4217 Z"
   id="path8" />
 <path
   fill="rgb(87,157,28)"
   stroke="none"
   d="M 9967,3219 C 9917,3135 9864,3052 9806,2973 9618,2714 9391,2487 9132,2299 8874,2111 8587,1965 8283,1867 8184,1834 8084,1807 7983,1785 L 7663,3274 C 7714,3285 7764,3299 7814,3315 7966,3364 8108,3437 8237,3531 8366,3625 8480,3739 8574,3868 8603,3908 8630,3949 8655,3991 L 9967,3219 Z"
   id="path10" />
 <path
   fill="rgb(172,0,33)"
   stroke="none"
   d="M 7983,1785 C 7773,1740 7558,1718 7343,1718 L 7343,3240 C 7451,3240 7558,3252 7663,3274 L 7983,1785 Z"
   id="path12" />
 <text
   class="TextShape"
   id="text20"><tspan
     class="TextParagraph"
     font-family="Liberation Sans, sans-serif"
     font-size="353px"
     font-weight="400"
     id="tspan18"><tspan
       class="TextPosition"
       x="752"
       y="2242"
       id="tspan16"><tspan
         fill="rgb(0,0,0)"
         stroke="none"
         id="tspan14">39,5 mld Kč 30%</tspan></tspan></tspan></text>
 <text
   class="TextShape"
   id="text28"
   x="3986.9221"
   y="318.89832"><tspan
     class="TextParagraph"
     font-family="'Liberation Sans', sans-serif"
     font-size="353px"
     font-weight="400"
     id="tspan26"><tspan
       class="TextPosition"
       x="8276.9219"
       y="8741.8984"
       id="tspan24"><tspan
         fill="#000000"
         stroke="none"
         id="tspan22">62,2 mld Kč 48%</tspan></tspan></tspan></text>
 <text
   class="TextShape"
   id="text36"><tspan
     class="TextParagraph"
     font-family="Liberation Sans, sans-serif"
     font-size="353px"
     font-weight="400"
     id="tspan34"><tspan
       class="TextPosition"
       x="11159"
       y="3586"
       id="tspan32"><tspan
         fill="rgb(0,0,0)"
         stroke="none"
         id="tspan30">7,3 mld Kč 6%</tspan></tspan></tspan></text>
 <text
   class="TextShape"
   id="text44"><tspan
     class="TextParagraph"
     font-family="Liberation Sans, sans-serif"
     font-size="353px"
     font-weight="400"
     id="tspan42"><tspan
       class="TextPosition"
       x="10779"
       y="1946"
       id="tspan40"><tspan
         fill="rgb(0,0,0)"
         stroke="none"
         id="tspan38">17,2 mld Kč 13%</tspan></tspan></tspan></text>
 <text
   class="TextShape"
   id="text52"><tspan
     class="TextParagraph"
     font-family="Liberation Sans, sans-serif"
     font-size="353px"
     font-weight="400"
     id="tspan50"><tspan
       class="TextPosition"
       x="7798"
       y="1212"
       id="tspan48"><tspan
         fill="rgb(0,0,0)"
         stroke="none"
         id="tspan46">4,4 mld Kč 3%</tspan></tspan></tspan></text>
 <path
   fill="none"
   stroke="rgb(0,0,0)"
   stroke-linejoin="round"
   d="M 4865,2992 L 3400,2322"
   id="path54" />
 <path
   fill="none"
   stroke="#000000"
   stroke-linejoin="round"
   d="m 8131.1049,7717.2128 1263.6423,689.6528"
   id="path56"
   style="stroke-width:38.7216" />
 <path
   fill="none"
   stroke="rgb(0,0,0)"
   stroke-linejoin="round"
   d="M 10197,3702 L 11158,3666"
   id="path58" />
 <path
   fill="none"
   stroke="rgb(0,0,0)"
   stroke-linejoin="round"
   d="M 9125,2294 L 10778,2026"
   id="path60" />
 <path
   fill="none"
   stroke="rgb(0,0,0)"
   stroke-linejoin="round"
   d="M 7665,1735 L 7798,1292"
   id="path62" />
 <text
   class="TextShape"
   id="text70"><tspan
     class="TextParagraph"
     font-family="Liberation Sans, sans-serif"
     font-size="459px"
     font-weight="400"
     id="tspan68"><tspan
       class="TextPosition"
       x="3436"
       y="647"
       id="tspan66"><tspan
         fill="rgb(0,0,0)"
         stroke="none"
         id="tspan64">Investice do reklamních médií v roce 2020</tspan></tspan></tspan></text>
 <path
   fill="rgb(0,130,134)"
   stroke="none"
   d="M 14226,3679 L 14120,3679 14120,3468 14331,3468 14331,3679 14226,3679 Z"
   id="path72" />
 <path
   fill="rgb(255,66,14)"
   stroke="none"
   d="M 14226,4177 L 14120,4177 14120,3966 14331,3966 14331,4177 14226,4177 Z"
   id="path74" />
 <path
   fill="rgb(255,211,32)"
   stroke="none"
   d="M 14226,4674 L 14120,4674 14120,4464 14331,4464 14331,4674 14226,4674 Z"
   id="path76" />
 <path
   fill="rgb(87,157,28)"
   stroke="none"
   d="M 14226,5172 L 14120,5172 14120,4961 14331,4961 14331,5172 14226,5172 Z"
   id="path78" />
 <path
   fill="rgb(172,0,33)"
   stroke="none"
   d="M 14226,5670 L 14120,5670 14120,5459 14331,5459 14331,5670 14226,5670 Z"
   id="path80" />
 <text
   class="TextShape"
   id="text88"><tspan
     class="TextParagraph"
     font-family="Liberation Sans, sans-serif"
     font-size="353px"
     font-weight="400"
     id="tspan86"><tspan
       class="TextPosition"
       x="14431"
       y="3693"
       id="tspan84"><tspan
         fill="rgb(0,0,0)"
         stroke="none"
         id="tspan82">Internet</tspan></tspan></tspan></text>
 <text
   class="TextShape"
   id="text96"><tspan
     class="TextParagraph"
     font-family="Liberation Sans, sans-serif"
     font-size="353px"
     font-weight="400"
     id="tspan94"><tspan
       class="TextPosition"
       x="14431"
       y="4191"
       id="tspan92"><tspan
         fill="rgb(0,0,0)"
         stroke="none"
         id="tspan90">TV</tspan></tspan></tspan></text>
 <text
   class="TextShape"
   id="text104"><tspan
     class="TextParagraph"
     font-family="Liberation Sans, sans-serif"
     font-size="353px"
     font-weight="400"
     id="tspan102"><tspan
       class="TextPosition"
       x="14431"
       y="4688"
       id="tspan100"><tspan
         fill="rgb(0,0,0)"
         stroke="none"
         id="tspan98">Rozhlas</tspan></tspan></tspan></text>
 <text
   class="TextShape"
   id="text112"><tspan
     class="TextParagraph"
     font-family="Liberation Sans, sans-serif"
     font-size="353px"
     font-weight="400"
     id="tspan110"><tspan
       class="TextPosition"
       x="14431"
       y="5186"
       id="tspan108"><tspan
         fill="rgb(0,0,0)"
         stroke="none"
         id="tspan106">Tisk</tspan></tspan></tspan></text>
 <text
   class="TextShape"
   id="text120"><tspan
     class="TextParagraph"
     font-family="Liberation Sans, sans-serif"
     font-size="353px"
     font-weight="400"
     id="tspan118"><tspan
       class="TextPosition"
       x="14431"
       y="5684"
       id="tspan116"><tspan
         fill="rgb(0,0,0)"
         stroke="none"
         id="tspan114">OOH</tspan></tspan></tspan></text>
</svg>
